{"extensionsUsed" : ["KHR_materials_pbrSpecularGlossiness"], "accessors" : [{"bufferView" : 0, "byteOffset" : 0, "componentType" : 5123, "count" : 1920, "type" : "SCALAR", "max" : [1758], "min" : [0]}, {"bufferView" : 1, "byteOffset" : 0, "componentType" : 5126, "count" : 1759, "type" : "VEC3", "max" : [88.75296783447266, 106.78597259521484, 88.75296783447266], "min" : [-88.75296783447266, -106.78597259521484, -88.75296020507812], "name" : "POSITION"}, {"bufferView" : 1, "byteOffset" : 12, "componentType" : 5126, "count" : 1759, "type" : "VEC3", "max" : [1.0000044107437134, 1.0000044107437134, 1.0000044107437134], "min" : [-1.0000044107437134, -1.0000044107437134, -1.0000044107437134], "name" : "NORMAL"}, {"bufferView" : 0, "byteOffset" : 3840, "componentType" : 5123, "count" : 4968, "type" : "SCALAR", "max" : [4355], "min" : [0]}, {"bufferView" : 2, "byteOffset" : 0, "componentType" : 5126, "count" : 4356, "type" : "VEC3", "max" : [347.6287841796875, 47.25656509399414, 0], "min" : [5.17453145980835, -14.681954383850098, -15], "name" : "POSITION"}, {"bufferView" : 2, "byteOffset" : 12, "componentType" : 5126, "count" : 4356, "type" : "VEC3", "max" : [1.0000044107437134, 1.0000044107437134, 1.0000044107437134], "min" : [-1.0000044107437134, -1.0000044107437134, -1.0000044107437134], "name" : "NORMAL"}], "asset" : {"generator" : "Aspose.3D 23.6.0", "version" : "2.0"}, "buffers" : [{"uri" : "data:application/octet-stream;base64,", "byteLength" : 179100}], "bufferViews" : [{"buffer" : 0, "byteOffset" : 0, "byteLength" : 13776, "target" : 34963}, {"buffer" : 0, "byteOffset" : 13780, "byteLength" : 46080, "byteStride" : 24, "target" : 34962}, {"buffer" : 0, "byteOffset" : 59864, "byteLength" : 119232, "byteStride" : 24, "target" : 34962}], "images" : [{"uri" : "data:image/png;base64,"}, {"uri" : "data:image/png;base64,"}, {"uri" : "data:image/png;base64,"}, {"uri" : "data:image/png;base64,"}, {"uri" : "data:image/png;base64,"}, {"uri" : "data:image/png;base64,"}, {"uri" : "data:image/png;base64,"}], "materials" : [{"name" : "", "extensions" : {"KHR_materials_pbrSpecularGlossiness" : {"diffuseFactor" : [1, 1, 1, 1], "diffuseTexture" : {"index" : 0, "texCoord" : 0}, "specularFactor" : [1, 1, 1], "glossinessFactor" : 1, "specularGlossinessTexture" : {"index" : 1, "texCoord" : 0, "scale" : 1}}}, "pbrMetallicRoughness" : {"baseColorFactor" : [1, 1, 1, 1], "baseColorTexture" : {"index" : 2, "texCoord" : 0}, "metallicFactor" : 1, "roughnessFactor" : 1, "metallicRoughnessTexture" : {"index" : 3, "texCoord" : 0}}, "emissiveFactor" : [0, 0, 0], "alphaMode" : "OPAQUE", "doubleSided" : true}, {"name" : "", "extensions" : {"KHR_materials_pbrSpecularGlossiness" : {"diffuseFactor" : [1, 1, 1, 1], "diffuseTexture" : {"index" : 4, "texCoord" : 0}, "specularFactor" : [1, 1, 1], "glossinessFactor" : 1, "specularGlossinessTexture" : {"index" : 1, "texCoord" : 0, "scale" : 1}}}, "pbrMetallicRoughness" : {"baseColorFactor" : [1, 1, 1, 1], "baseColorTexture" : {"index" : 5, "texCoord" : 0}, "metallicFactor" : 1, "roughnessFactor" : 1, "metallicRoughnessTexture" : {"index" : 6, "texCoord" : 0}}, "emissiveFactor" : [0, 0, 0], "alphaMode" : "OPAQUE", "doubleSided" : true}], "meshes" : [{"primitives" : [{"attributes" : {"POSITION" : 1, "NORMAL" : 2}, "indices" : 0, "material" : 0, "mode" : 4}]}, {"primitives" : [{"attributes" : {"POSITION" : 4, "NORMAL" : 5}, "indices" : 3, "material" : 1, "mode" : 4}]}], "nodes" : [{"matrix" : [-3.8425541908268683E-11, -0.0009878486836625636, 0.00015541927175268317, 0, 0, 0.00015541923332714126, 0.0009878486836625636, 0, -0.0010000000859229931, 0, -3.8425541908268683E-11, 0, -0.20643946528434753, -0.0028167725540697575, 0.04758838191628456, 1], "mesh" : 0, "name" : "Node #0"}, {"matrix" : [1, 0, 0, 0, 0, 1, 0, 0, 0, 0, 1, 0, -176.4016571044922, -16.28730583190918, 7.5, 1], "mesh" : 1, "name" : "Node #1"}, {"children" : [1], "matrix" : [0.0009941444516801165, 0.00010805864560780947, -2.2564765471829567E-10, 0, -0.00010805864560779463, 0.0009941444516801407, 7.6984238811411E-11, 0, 2.3264521994801415E-10, -5.215028260206637E-11, 0.001000000047497423, 0, 0.10104883462190628, -0.02155127003788948, 0.015625977888703346, 1], "name" : "node_id37"}, {"children" : [0, 2], "name" : "root"}], "samplers" : [{"magFilter" : 9728, "minFilter" : 9985, "wrapS" : 10497, "wrapT" : 10497}, {"magFilter" : 9728, "minFilter" : 9985, "wrapS" : 10497, "wrapT" : 10497}, {"magFilter" : 9728, "minFilter" : 9985, "wrapS" : 10497, "wrapT" : 10497}, {"magFilter" : 9728, "minFilter" : 9985, "wrapS" : 10497, "wrapT" : 10497}, {"magFilter" : 9728, "minFilter" : 9985, "wrapS" : 10497, "wrapT" : 10497}, {"magFilter" : 9728, "minFilter" : 9985, "wrapS" : 10497, "wrapT" : 10497}, {"magFilter" : 9728, "minFilter" : 9985, "wrapS" : 10497, "wrapT" : 10497}], "scene" : 0, "scenes" : [{"nodes" : [3]}], "textures" : [{"sampler" : 0, "source" : 0, "name" : ""}, {"sampler" : 1, "source" : 1, "name" : ""}, {"sampler" : 2, "source" : 2, "name" : ""}, {"sampler" : 3, "source" : 3, "name" : ""}, {"sampler" : 4, "source" : 4, "name" : ""}, {"sampler" : 5, "source" : 5, "name" : ""}, {"sampler" : 6, "source" : 6, "name" : ""}]}